<?xml version="1.0" encoding="UTF-8" standalone="no"?>
<!-- Generator: Adobe Illustrator 18.0.0, SVG Export Plug-In . SVG Version: 6.00 Build 0)  -->

<svg
   xmlns:dc="http://purl.org/dc/elements/1.1/"
   xmlns:cc="http://creativecommons.org/ns#"
   xmlns:rdf="http://www.w3.org/1999/02/22-rdf-syntax-ns#"
   xmlns:svg="http://www.w3.org/2000/svg"
   xmlns="http://www.w3.org/2000/svg"
   xmlns:sodipodi="http://sodipodi.sourceforge.net/DTD/sodipodi-0.dtd"
   xmlns:inkscape="http://www.inkscape.org/namespaces/inkscape"
   version="1.1"
   id="Capa_1"
   x="0px"
   y="0px"
   viewBox="0 0 56 56"
   style="enable-background:new 0 0 56 56;"
   xml:space="preserve"
   inkscape:version="0.91 r13725"
   sodipodi:docname="gif.svg"><metadata
     id="metadata57"><rdf:RDF><cc:Work
         rdf:about=""><dc:format>image/svg+xml</dc:format><dc:type
           rdf:resource="http://purl.org/dc/dcmitype/StillImage" /><dc:title></dc:title></cc:Work></rdf:RDF></metadata><defs
     id="defs55" /><sodipodi:namedview
     pagecolor="#ffffff"
     bordercolor="#666666"
     borderopacity="1"
     objecttolerance="10"
     gridtolerance="10"
     guidetolerance="10"
     inkscape:pageopacity="0"
     inkscape:pageshadow="2"
     inkscape:window-width="1048"
     inkscape:window-height="674"
     id="namedview53"
     showgrid="false"
     inkscape:zoom="4.2142857"
     inkscape:cx="66.600002"
     inkscape:cy="28"
     inkscape:window-x="392"
     inkscape:window-y="89"
     inkscape:window-maximized="0"
     inkscape:current-layer="Capa_1" /><g
     id="g23" /><g
     id="g25" /><g
     id="g27" /><g
     id="g29" /><g
     id="g31" /><g
     id="g33" /><g
     id="g35" /><g
     id="g37" /><g
     id="g39" /><g
     id="g41" /><g
     id="g43" /><g
     id="g45" /><g
     id="g47" /><g
     id="g49" /><g
     id="g51" /><g
     id="g4217"><path
       style="fill:#e9e9e0"
       d="M 36.985,0 7.963,0 C 7.155,0 6.5,0.655 6.5,1.926 L 6.5,55 c 0,0.345 0.655,1 1.463,1 l 40.074,0 c 0.808,0 1.463,-0.655 1.463,-1 l 0,-42.022 c 0,-0.696 -0.093,-0.92 -0.257,-1.085 L 37.607,0.257 C 37.442,0.093 37.218,0 36.985,0 Z"
       id="path5"
       inkscape:connector-curvature="0" /><path
       style="fill:#659c35"
       d="M 48.037,56 7.963,56 C 7.155,56 6.5,55.345 6.5,54.537 L 6.5,39 l 43,0 0,15.537 C 49.5,55.345 48.845,56 48.037,56 Z"
       id="path7"
       inkscape:connector-curvature="0" /><polygon
       style="fill:#d9d7ca"
       points="37.5,12 49.349,12 37.5,0.151 "
       id="polygon9" /><circle
       style="fill:#f3d55b"
       cx="18.931"
       cy="14.431"
       r="4.5689998"
       id="circle19" /><polygon
       style="fill:#88c057"
       points="39.5,18.5 29,30 23.517,24.517 6.5,39 17.5,39 49.5,39 49.5,28 "
       id="polygon21" /><text
       transform="scale(1.0785481,0.92717237)"
       sodipodi:linespacing="125%"
       id="text4197"
       y="58.095356"
       x="12.68801"
       style="font-style:normal;font-weight:normal;font-size:15.40790653px;line-height:125%;font-family:sans-serif;letter-spacing:0px;word-spacing:0px;fill:#ffffff;fill-opacity:1;stroke:none;stroke-width:1px;stroke-linecap:butt;stroke-linejoin:miter;stroke-opacity:1"
       xml:space="preserve"><tspan
         y="58.095356"
         x="12.68801"
         id="tspan4199"
         sodipodi:role="line">GIF</tspan></text>
</g></svg>