<?xml version="1.0" encoding="UTF-8" standalone="no"?>
<!-- Generator: Adobe Illustrator 18.0.0, SVG Export Plug-In . SVG Version: 6.00 Build 0)  -->

<svg
   xmlns:dc="http://purl.org/dc/elements/1.1/"
   xmlns:cc="http://creativecommons.org/ns#"
   xmlns:rdf="http://www.w3.org/1999/02/22-rdf-syntax-ns#"
   xmlns:svg="http://www.w3.org/2000/svg"
   xmlns="http://www.w3.org/2000/svg"
   xmlns:sodipodi="http://sodipodi.sourceforge.net/DTD/sodipodi-0.dtd"
   xmlns:inkscape="http://www.inkscape.org/namespaces/inkscape"
   version="1.1"
   id="Capa_1"
   x="0px"
   y="0px"
   viewBox="0 0 56 56"
   style="enable-background:new 0 0 56 56;"
   xml:space="preserve"
   inkscape:version="0.91 r13725"
   sodipodi:docname="unknown.svg"><metadata
     id="metadata77"><rdf:RDF><cc:Work
         rdf:about=""><dc:format>image/svg+xml</dc:format><dc:type
           rdf:resource="http://purl.org/dc/dcmitype/StillImage" /></cc:Work></rdf:RDF></metadata><defs
     id="defs75" /><sodipodi:namedview
     pagecolor="#ffffff"
     bordercolor="#666666"
     borderopacity="1"
     objecttolerance="10"
     gridtolerance="10"
     guidetolerance="10"
     inkscape:pageopacity="0"
     inkscape:pageshadow="2"
     inkscape:window-width="1123"
     inkscape:window-height="912"
     id="namedview73"
     showgrid="false"
     inkscape:zoom="4.2142857"
     inkscape:cx="-7"
     inkscape:cy="28"
     inkscape:window-x="523"
     inkscape:window-y="28"
     inkscape:window-maximized="0"
     inkscape:current-layer="Capa_1" /><g
     id="g43" /><g
     id="g45" /><g
     id="g47" /><g
     id="g49" /><g
     id="g51" /><g
     id="g53" /><g
     id="g55" /><g
     id="g57" /><g
     id="g59" /><g
     id="g61" /><g
     id="g63" /><g
     id="g65" /><g
     id="g67" /><g
     id="g69" /><g
     id="g71" /><g
     id="g4234"><path
       style="fill:#e9e9e0"
       d="m 37.696864,-5.084746e-8 -29.0219995,0 c -0.808,0 -1.463,0.65500000084746 -1.463,1.92599995084746 l 0,53.0740001 c 0,0.345 0.655,1 1.463,1 l 40.0739995,0 c 0.808,0 1.463,-0.655 1.463,-1 l 0,-42.022 c 0,-0.696 -0.093,-0.92 -0.257,-1.085 l -11.636,-11.63600005 c -0.165,-0.164 -0.389,-0.25700000084746 -0.622,-0.25700000084746 z"
       id="path5"
       inkscape:connector-curvature="0" /><polygon
       transform="translate(0.71186443,-5.0847461e-8)"
       style="fill:#d9d7ca"
       points="49.349,12 37.5,0.151 37.5,12 "
       id="polygon7" /><g
       transform="matrix(1.4877953,0,0,1.2397859,-12.228788,-5.4862459)"
       id="text4227"
       style="font-style:normal;font-weight:normal;font-size:40px;line-height:125%;font-family:sans-serif;letter-spacing:0px;word-spacing:0px;fill:#000000;fill-opacity:1;stroke:none;stroke-width:1px;stroke-linecap:butt;stroke-linejoin:miter;stroke-opacity:1"><path
         inkscape:connector-curvature="0"
         id="path4232"
         d="m 24.484177,38.700081 3.964843,0 0,4.960937 -3.964843,0 0,-4.960937 z m 3.847656,-2.871094 -3.730469,0 0,-3.007812 q 0,-1.972657 0.546875,-3.242188 0.546875,-1.269531 2.304688,-2.949219 l 1.757812,-1.738281 q 1.113281,-1.035156 1.601563,-1.953125 0.507812,-0.917969 0.507812,-1.875 0,-1.738281 -1.289062,-2.8125 -1.269532,-1.074219 -3.378907,-1.074219 -1.542968,0 -3.300781,0.683594 -1.738281,0.683594 -3.632812,1.992188 l 0,-3.671875 q 1.835937,-1.113282 3.710937,-1.660157 1.894531,-0.546875 3.90625,-0.546875 3.59375,0 5.761719,1.894532 2.1875,1.894531 2.1875,5 0,1.484375 -0.703125,2.832031 -0.703125,1.328125 -2.460938,3.007812 l -1.71875,1.679688 q -0.917968,0.917969 -1.308593,1.445312 -0.371094,0.507813 -0.527344,0.996094 -0.117188,0.410156 -0.175781,0.996094 -0.05859,0.585937 -0.05859,1.601562 l 0,2.402344 z" /></g></g></svg>