<?xml version="1.0" encoding="UTF-8" standalone="no"?>
<!-- Created with Inkscape (http://www.inkscape.org/) -->

<svg
   xmlns:dc="http://purl.org/dc/elements/1.1/"
   xmlns:cc="http://creativecommons.org/ns#"
   xmlns:rdf="http://www.w3.org/1999/02/22-rdf-syntax-ns#"
   xmlns:svg="http://www.w3.org/2000/svg"
   xmlns="http://www.w3.org/2000/svg"
   xmlns:xlink="http://www.w3.org/1999/xlink"
   xmlns:sodipodi="http://sodipodi.sourceforge.net/DTD/sodipodi-0.dtd"
   xmlns:inkscape="http://www.inkscape.org/namespaces/inkscape"
   inkscape:output_extension="org.inkscape.output.svg.inkscape"
   id="svg2"
   version="1.0"
   inkscape:version="0.91 r13725"
   sodipodi:version="0.32"
   height="300"
   inkscape:export-ydpi="90"
   inkscape:export-xdpi="90"
   width="400"
   sodipodi:docname="folderR_grey.svg"
   inkscape:export-filename="/home/martin/Projects/Fedora/Graphics/Echo/Perspective/folder2.png">
  <defs
     id="defs4">
    <marker
       inkscape:stockid="SquareL"
       orient="auto"
       refY="0.0"
       refX="0.0"
       id="marker5297"
       style="overflow:visible"
       inkscape:isstock="true">
      <path
         id="path5299"
         d="M -5.0,-5.0 L -5.0,5.0 L 5.0,5.0 L 5.0,-5.0 L -5.0,-5.0 z "
         style="fill-rule:evenodd;stroke:#000000;stroke-width:1pt;stroke-opacity:1;fill:#000000;fill-opacity:1"
         transform="scale(0.8)" />
    </marker>
    <marker
       inkscape:stockid="DotL"
       orient="auto"
       refY="0.0"
       refX="0.0"
       id="DotL"
       style="overflow:visible"
       inkscape:isstock="true">
      <path
         id="path4247"
         d="M -2.5,-1.0 C -2.5,1.7600000 -4.7400000,4.0 -7.5,4.0 C -10.260000,4.0 -12.5,1.7600000 -12.5,-1.0 C -12.5,-3.7600000 -10.260000,-6.0 -7.5,-6.0 C -4.7400000,-6.0 -2.5,-3.7600000 -2.5,-1.0 z "
         style="fill-rule:evenodd;stroke:#000000;stroke-width:1pt;stroke-opacity:1;fill:#000000;fill-opacity:1"
         transform="scale(0.8) translate(7.4, 1)" />
    </marker>
    <marker
       style="overflow:visible"
       id="marker5021"
       refX="0.0"
       refY="0.0"
       orient="auto"
       inkscape:stockid="DistanceEnd"
       inkscape:isstock="true">
      <g
         id="g5023"
         style="stroke:#000000;stroke-opacity:1;fill:#000000;fill-opacity:1">
        <path
           style="fill:#000000;stroke:#000000;stroke-width:1.15;stroke-linecap:square;stroke-opacity:1;fill-opacity:1"
           d="M 0,0 L -2,0"
           id="path5025" />
        <path
           style="fill:#000000;fill-rule:evenodd;stroke:#000000;stroke-opacity:1;fill-opacity:1"
           d="M 0,0 L -13,4 L -9,0 -13,-4 L 0,0 z "
           id="path5027" />
        <path
           style="fill:#000000;stroke:#000000;stroke-width:1;stroke-linecap:square;stroke-opacity:1;fill-opacity:1"
           d="M 0,-4 L 0,40"
           id="path5029" />
      </g>
    </marker>
    <marker
       inkscape:stockid="SquareL"
       orient="auto"
       refY="0.0"
       refX="0.0"
       id="SquareL"
       style="overflow:visible"
       inkscape:isstock="true">
      <path
         id="path4256"
         d="M -5.0,-5.0 L -5.0,5.0 L 5.0,5.0 L 5.0,-5.0 L -5.0,-5.0 z "
         style="fill-rule:evenodd;stroke:#000000;stroke-width:1pt;stroke-opacity:1;fill:#000000;fill-opacity:1"
         transform="scale(0.8)" />
    </marker>
    <marker
       inkscape:stockid="DotS"
       orient="auto"
       refY="0.0"
       refX="0.0"
       id="marker4847"
       style="overflow:visible"
       inkscape:isstock="true">
      <path
         id="path4849"
         d="M -2.5,-1.0 C -2.5,1.7600000 -4.7400000,4.0 -7.5,4.0 C -10.260000,4.0 -12.5,1.7600000 -12.5,-1.0 C -12.5,-3.7600000 -10.260000,-6.0 -7.5,-6.0 C -4.7400000,-6.0 -2.5,-3.7600000 -2.5,-1.0 z "
         style="fill-rule:evenodd;stroke:#000000;stroke-width:1pt;stroke-opacity:1;fill:#000000;fill-opacity:1"
         transform="scale(0.2) translate(7.4, 1)" />
    </marker>
    <marker
       inkscape:stockid="DotS"
       orient="auto"
       refY="0.0"
       refX="0.0"
       id="DotS"
       style="overflow:visible"
       inkscape:isstock="true">
      <path
         id="path4253"
         d="M -2.5,-1.0 C -2.5,1.7600000 -4.7400000,4.0 -7.5,4.0 C -10.260000,4.0 -12.5,1.7600000 -12.5,-1.0 C -12.5,-3.7600000 -10.260000,-6.0 -7.5,-6.0 C -4.7400000,-6.0 -2.5,-3.7600000 -2.5,-1.0 z "
         style="fill-rule:evenodd;stroke:#000000;stroke-width:1pt;stroke-opacity:1;fill:#000000;fill-opacity:1"
         transform="scale(0.2) translate(7.4, 1)" />
    </marker>
    <marker
       style="overflow:visible"
       id="marker4673"
       refX="0.0"
       refY="0.0"
       orient="auto"
       inkscape:stockid="DistanceEnd"
       inkscape:isstock="true">
      <g
         id="g4675"
         style="stroke:#000000;stroke-opacity:1;fill:#000000;fill-opacity:1">
        <path
           style="fill:#000000;stroke:#000000;stroke-width:1.15;stroke-linecap:square;stroke-opacity:1;fill-opacity:1"
           d="M 0,0 L -2,0"
           id="path4677" />
        <path
           style="fill:#000000;fill-rule:evenodd;stroke:#000000;stroke-opacity:1;fill-opacity:1"
           d="M 0,0 L -13,4 L -9,0 -13,-4 L 0,0 z "
           id="path4679" />
        <path
           style="fill:#000000;stroke:#000000;stroke-width:1;stroke-linecap:square;stroke-opacity:1;fill-opacity:1"
           d="M 0,-4 L 0,40"
           id="path4681" />
      </g>
    </marker>
    <marker
       style="overflow:visible"
       id="DistanceEnd"
       refX="0.0"
       refY="0.0"
       orient="auto"
       inkscape:stockid="DistanceEnd"
       inkscape:isstock="true">
      <g
         id="g2301"
         style="stroke:#000000;stroke-opacity:1;fill:#000000;fill-opacity:1">
        <path
           style="fill:#000000;stroke:#000000;stroke-width:1.15;stroke-linecap:square;stroke-opacity:1;fill-opacity:1"
           d="M 0,0 L -2,0"
           id="path2316" />
        <path
           style="fill:#000000;fill-rule:evenodd;stroke:#000000;stroke-opacity:1;fill-opacity:1"
           d="M 0,0 L -13,4 L -9,0 -13,-4 L 0,0 z "
           id="path2312" />
        <path
           style="fill:#000000;stroke:#000000;stroke-width:1;stroke-linecap:square;stroke-opacity:1;fill-opacity:1"
           d="M 0,-4 L 0,40"
           id="path2314" />
      </g>
    </marker>
    <marker
       inkscape:stockid="Arrow1Send"
       orient="auto"
       refY="0.0"
       refX="0.0"
       id="Arrow1Send"
       style="overflow:visible;"
       inkscape:isstock="true">
      <path
         id="path4201"
         d="M 0.0,0.0 L 5.0,-5.0 L -12.5,0.0 L 5.0,5.0 L 0.0,0.0 z "
         style="fill-rule:evenodd;stroke:#000000;stroke-width:1pt;stroke-opacity:1;fill:#000000;fill-opacity:1"
         transform="scale(0.2) rotate(180) translate(6,0)" />
    </marker>
    <marker
       style="overflow:visible"
       id="DistanceStart"
       refX="0.0"
       refY="0.0"
       orient="auto"
       inkscape:stockid="DistanceStart"
       inkscape:isstock="true">
      <g
         id="g2300"
         style="stroke:#000000;stroke-opacity:1;fill:#000000;fill-opacity:1">
        <path
           style="fill:#000000;stroke:#000000;stroke-width:1.15;stroke-linecap:square;stroke-opacity:1;fill-opacity:1"
           d="M 0,0 L 2,0"
           id="path2306" />
        <path
           style="fill:#000000;fill-rule:evenodd;stroke:#000000;stroke-opacity:1;fill-opacity:1"
           d="M 0,0 L 13,4 L 9,0 13,-4 L 0,0 z "
           id="path2302" />
        <path
           style="fill:#000000;stroke:#000000;stroke-width:1;stroke-linecap:square;stroke-opacity:1;fill-opacity:1"
           d="M 0,-4 L 0,40"
           id="path2304" />
      </g>
    </marker>
    <marker
       inkscape:stockid="Arrow1Lstart"
       orient="auto"
       refY="0.0"
       refX="0.0"
       id="Arrow1Lstart"
       style="overflow:visible"
       inkscape:isstock="true">
      <path
         id="path4186"
         d="M 0.0,0.0 L 5.0,-5.0 L -12.5,0.0 L 5.0,5.0 L 0.0,0.0 z "
         style="fill-rule:evenodd;stroke:#000000;stroke-width:1pt;stroke-opacity:1;fill:#000000;fill-opacity:1"
         transform="scale(0.8) translate(12.5,0)" />
    </marker>
    <linearGradient
       id="linearGradient3739">
      <stop
         style="stop-color:#ad6a0c;stop-opacity:1;"
         offset="0"
         id="stop3741" />
      <stop
         style="stop-color:#d09f07;stop-opacity:1;"
         offset="1"
         id="stop3743" />
    </linearGradient>
    <linearGradient
       id="linearGradient2915">
      <stop
         style="stop-color:#dfa842;stop-opacity:1;"
         offset="0"
         id="stop2917" />
      <stop
         style="stop-color:#ca8a11;stop-opacity:1;"
         offset="1"
         id="stop2919" />
    </linearGradient>
    <linearGradient
       id="linearGradient2907">
      <stop
         style="stop-color:#333333;stop-opacity:1"
         offset="0"
         id="stop2909" />
      <stop
         id="stop3751"
         offset="0.06966887"
         style="stop-color:#666666;stop-opacity:1" />
      <stop
         style="stop-color:#b3b3b3;stop-opacity:1"
         offset="0.24503312"
         id="stop7173" />
      <stop
         id="stop3749"
         offset="0.54337746"
         style="stop-color:#b3b3b3;stop-opacity:1" />
      <stop
         style="stop-color:#666666;stop-opacity:1"
         offset="1"
         id="stop2911" />
    </linearGradient>
    <linearGradient
       inkscape:collect="always"
       xlink:href="#linearGradient2907"
       id="linearGradient2913"
       x1="159.03033"
       y1="233"
       x2="159.03033"
       y2="82"
       gradientUnits="userSpaceOnUse"
       gradientTransform="matrix(1.8661095,0,0,1.7000178,-95.607161,-112.46303)" />
    <linearGradient
       inkscape:collect="always"
       xlink:href="#linearGradient3739"
       id="linearGradient3747"
       x1="221.25"
       y1="71.25"
       x2="197.75"
       y2="233.75"
       gradientUnits="userSpaceOnUse"
       gradientTransform="matrix(1.8661095,0,0,1.7000178,-96.540216,-112.46303)" />
    <filter
       inkscape:collect="always"
       id="filter3796"
       x="-0.024907934"
       width="1.0498159"
       y="-0.46645768"
       height="1.9329154">
      <feGaussianBlur
         inkscape:collect="always"
         stdDeviation="2.137931"
         id="feGaussianBlur3798" />
    </filter>
  </defs>
  <sodipodi:namedview
     inkscape:cy="81.914897"
     inkscape:current-layer="artwork"
     inkscape:window-width="1444"
     pagecolor="#ffffff"
     objecttolerance="10"
     showgrid="false"
     inkscape:pageshadow="2"
     inkscape:window-x="1733"
     id="base"
     bordercolor="#666666"
     inkscape:window-y="107"
     gridtolerance="10000"
     inkscape:document-units="px"
     inkscape:zoom="1.4142136"
     inkscape:window-height="830"
     borderopacity="1.0"
     guidetolerance="10"
     inkscape:cx="95.900513"
     inkscape:pageopacity="0.0"
     showguides="true"
     inkscape:guide-bbox="true"
     inkscape:window-maximized="0" />
  <metadata
     id="metadata7">
    <rdf:RDF>
      <cc:Work
         rdf:about="">
        <dc:format>image/svg+xml</dc:format>
        <dc:type
           rdf:resource="http://purl.org/dc/dcmitype/StillImage" />
        <cc:license
           rdf:resource="http://creativecommons.org/licenses/by-sa/3.0/" />
        <dc:title />
        <dc:description>places</dc:description>
      </cc:Work>
      <cc:License
         rdf:about="http://creativecommons.org/licenses/by-sa/3.0/">
        <cc:permits
           rdf:resource="http://creativecommons.org/ns#Reproduction" />
        <cc:permits
           rdf:resource="http://creativecommons.org/ns#Distribution" />
        <cc:requires
           rdf:resource="http://creativecommons.org/ns#Notice" />
        <cc:requires
           rdf:resource="http://creativecommons.org/ns#Attribution" />
        <cc:permits
           rdf:resource="http://creativecommons.org/ns#DerivativeWorks" />
        <cc:requires
           rdf:resource="http://creativecommons.org/ns#ShareAlike" />
      </cc:License>
    </rdf:RDF>
  </metadata>
  <g
     inkscape:groupmode="layer"
     id="plate"
     inkscape:label="plate"
     style="display:none"
     sodipodi:insensitive="true">
    <rect
       x="30"
       y="24"
       id="256x256"
       height="256"
       style="opacity:1;fill:#cccccc;fill-opacity:1;stroke:none;stroke-width:0.75;stroke-linecap:round;stroke-linejoin:round;stroke-miterlimit:4;stroke-dasharray:none;stroke-opacity:1"
       width="256" />
    <rect
       x="318"
       y="38.000011"
       id="48x48"
       height="48"
       inkscape:label="scalable"
       width="48"
       style="opacity:1;fill:#cccccc;fill-opacity:1;stroke:none;stroke-width:0.75;stroke-linecap:round;stroke-linejoin:round;stroke-miterlimit:4;stroke-dasharray:none;stroke-opacity:1" />
    <rect
       x="326"
       y="120"
       id="32x32"
       height="32"
       style="opacity:1;fill:#cccccc;fill-opacity:1;stroke:none;stroke-width:0.75;stroke-linecap:round;stroke-linejoin:round;stroke-miterlimit:4;stroke-dasharray:none;stroke-opacity:1"
       width="32" />
    <rect
       x="330"
       y="186"
       id="24x24"
       height="24"
       width="24"
       style="opacity:1;fill:#cccccc;fill-opacity:1;stroke:none;stroke-width:0.75;stroke-linecap:round;stroke-linejoin:round;stroke-miterlimit:4;stroke-dasharray:none;stroke-opacity:1" />
    <rect
       x="331"
       y="187"
       id="22x22"
       height="22"
       style="opacity:1;fill:#999999;fill-opacity:1;stroke:none;stroke-width:0.75;stroke-linecap:round;stroke-linejoin:round;stroke-miterlimit:4;stroke-dasharray:none;stroke-opacity:1"
       width="22" />
    <rect
       x="334"
       y="243"
       id="16x16"
       height="16"
       style="opacity:1;fill:#cccccc;fill-opacity:1;stroke:none;stroke-width:0.75;stroke-linecap:round;stroke-linejoin:round;stroke-miterlimit:4;stroke-dasharray:none;stroke-opacity:1"
       width="16" />
  </g>
  <g
     inkscape:groupmode="layer"
     id="artwork"
     inkscape:label="artwork"
     style="display:inline">
    <path
       style="opacity:0.70854271;fill:#2d2d2d;fill-opacity:1;stroke:none;stroke-width:1.5;stroke-linecap:round;stroke-linejoin:round;stroke-miterlimit:4;stroke-opacity:1;filter:url(#filter3796)"
       d="m 100.47666,221.10051 190,0 8,11 -206.000002,0 8.000002,-11 z"
       id="rect3757"
       sodipodi:nodetypes="ccccc"
       inkscape:connector-curvature="0"
       transform="matrix(1.8661095,0,0,1.7000179,-166.47576,-104.13381)" />
    <path
       sodipodi:nodetypes="csscccssscccccc"
       id="path3745"
       d="m 51.932122,9.9382468 c -14.415359,0 -24.675882,4.4201862 -25.659005,20.0814612 C 23.740733,70.360563 13.560243,163.35481 13.560243,203.7403 l 0,68.31947 c 0.187876,5.89743 7.4193,11.58138 13.470982,11.58138 l 344.472155,0 c 6.59649,0 13.41266,-5.65744 13.41266,-13.75952 l 0,-66.14133 c 0,-36.32464 -9.75771,-114.348803 -13.00446,-146.679683 C 370.52017,43.20508 357.77934,33.738496 341.47067,33.738496 l -110.74193,0 -38.78008,0 -6.82297,-10.51886 C 178.465,12.978057 171.134,9.9382468 162.20753,9.9382468 l -110.275408,0 z"
       style="fill:none;fill-opacity:1;fill-rule:evenodd;stroke:url(#linearGradient3747);stroke-width:2.67169309;stroke-linecap:butt;stroke-linejoin:miter;stroke-opacity:1"
       inkscape:connector-curvature="0" />
    <path
       style="fill:#808080;fill-opacity:1;fill-rule:evenodd;stroke:#000000;stroke-width:1.78112876px;stroke-linecap:butt;stroke-linejoin:miter;stroke-opacity:1"
       d="m 51.932122,9.9382468 c -14.415359,0 -24.675882,4.4201862 -25.659005,20.0814612 C 23.740733,70.360563 13.560243,163.35481 13.560243,203.7403 l 0,68.31947 c 0.187876,5.89743 7.4193,11.58138 13.470982,11.58138 l 344.472155,0 c 6.59649,0 13.41266,-5.65744 13.41266,-13.75952 l 0,-66.14133 c 0,-36.32464 -9.75771,-114.348803 -13.00446,-146.679683 C 370.52017,43.20508 357.77934,33.738496 341.47067,33.738496 l -110.74193,0 -38.78008,0 -6.82297,-10.51886 C 178.465,12.978057 171.134,9.9382468 162.20753,9.9382468 l -110.275408,0 z"
       id="path2896"
       sodipodi:nodetypes="csscccssscccccc"
       inkscape:connector-curvature="0" />
    <path
       style="fill:url(#linearGradient2913);fill-opacity:1;stroke:#000000;stroke-width:2.67169309;stroke-linecap:round;stroke-linejoin:round;stroke-miterlimit:4;stroke-opacity:1"
       d="m 238.42644,57.538747 120.84382,0 c 20.00932,0 33.75835,12.465866 32.17716,31.643088 -2.73834,33.211525 -1.51965,83.787005 -3.24628,112.858455 -1.43918,24.23126 -2.33167,42.37939 -2.35205,68.00071 -0.006,6.02381 -6.45043,13.60015 -13.06277,13.60015 l -345.230253,0 c -6.157844,0 -13.001319,-6.29063 -13.062769,-11.90014 C 14.205693,245.48921 13.827451,225.3177 13.037807,202.04029 11.996144,171.33414 10.238605,122.72469 7.0288592,90.673311 7.1298346,64.030776 26.338226,57.538747 41.246911,57.538747 l 197.179529,0 z"
       id="rect2544"
       sodipodi:nodetypes="csssssssscsc"
       inkscape:connector-curvature="0" />
    <path
       style="display:inline;fill:none;fill-rule:evenodd;stroke:#000000;stroke-width:16.030159;stroke-linecap:butt;stroke-linejoin:miter;stroke-miterlimit:4;stroke-dasharray:none;stroke-opacity:1"
       d="m 166.52642,125.81735 c 41.19017,101.16691 43.61311,107.1179 43.61311,107.1179"
       id="path5561-8"
       inkscape:connector-curvature="0" />
  </g>
</svg>
